<mxfile host="Electron" modified="2023-07-23T17:49:57.915Z" agent="Mozilla/5.0 (Macintosh; Intel Mac OS X 10_15_7) AppleWebKit/537.36 (KHTML, like Gecko) draw.io/21.6.1 Chrome/112.0.5615.204 Electron/24.6.1 Safari/537.36" etag="pDhh-v3MgVfIBs7YhQCG" version="21.6.1" type="device">
  <diagram name="第 1 页" id="lkhF8kGGMReA-yPW7bC2">
    <mxGraphModel dx="1084" dy="662" grid="1" gridSize="10" guides="1" tooltips="1" connect="1" arrows="1" fold="1" page="0" pageScale="1" pageWidth="1169" pageHeight="1654" math="0" shadow="0">
      <root>
        <mxCell id="0" />
        <mxCell id="1" parent="0" />
        <mxCell id="8pr7RFlPT-eMuXhzLhur-2" value="战斗" style="ellipse;whiteSpace=wrap;html=1;fontSize=16;fillColor=#f8cecc;strokeColor=#b85450;" vertex="1" parent="1">
          <mxGeometry x="120" width="120" height="80" as="geometry" />
        </mxCell>
        <mxCell id="8pr7RFlPT-eMuXhzLhur-14" value="" style="edgeStyle=none;curved=1;rounded=0;orthogonalLoop=1;jettySize=auto;html=1;fontSize=12;startSize=8;endSize=8;" edge="1" parent="1" source="8pr7RFlPT-eMuXhzLhur-3" target="8pr7RFlPT-eMuXhzLhur-9">
          <mxGeometry relative="1" as="geometry" />
        </mxCell>
        <mxCell id="8pr7RFlPT-eMuXhzLhur-3" value="养成" style="ellipse;whiteSpace=wrap;html=1;fontSize=16;fillColor=#d5e8d4;strokeColor=#82b366;" vertex="1" parent="1">
          <mxGeometry y="160" width="120" height="80" as="geometry" />
        </mxCell>
        <mxCell id="8pr7RFlPT-eMuXhzLhur-5" value="挑战&lt;br&gt;探索" style="text;html=1;strokeColor=none;fillColor=none;align=center;verticalAlign=middle;whiteSpace=wrap;rounded=0;fontSize=16;" vertex="1" parent="1">
          <mxGeometry x="70" y="80" width="60" height="50" as="geometry" />
        </mxCell>
        <mxCell id="8pr7RFlPT-eMuXhzLhur-7" value="培养" style="text;html=1;strokeColor=none;fillColor=none;align=center;verticalAlign=middle;whiteSpace=wrap;rounded=0;fontSize=16;" vertex="1" parent="1">
          <mxGeometry x="150" y="210" width="60" height="30" as="geometry" />
        </mxCell>
        <mxCell id="8pr7RFlPT-eMuXhzLhur-8" value="&lt;font style=&quot;font-size: 14px;&quot;&gt;崩坏：星穹铁道核心玩法体验闭环&lt;/font&gt;" style="text;html=1;strokeColor=none;fillColor=none;align=center;verticalAlign=middle;whiteSpace=wrap;rounded=0;fontSize=16;" vertex="1" parent="1">
          <mxGeometry x="40" y="330" width="280" height="30" as="geometry" />
        </mxCell>
        <mxCell id="8pr7RFlPT-eMuXhzLhur-9" value="剧情&lt;br&gt;挑战类关卡" style="text;html=1;strokeColor=none;fillColor=none;align=center;verticalAlign=middle;whiteSpace=wrap;rounded=0;fontSize=16;" vertex="1" parent="1">
          <mxGeometry x="-60" y="10" width="160" height="160" as="geometry" />
        </mxCell>
        <mxCell id="8pr7RFlPT-eMuXhzLhur-11" value="奖励" style="ellipse;whiteSpace=wrap;html=1;fontSize=16;fillColor=#e1d5e7;strokeColor=#9673a6;" vertex="1" parent="1">
          <mxGeometry x="240" y="160" width="120" height="80" as="geometry" />
        </mxCell>
        <mxCell id="8pr7RFlPT-eMuXhzLhur-12" value="" style="endArrow=classic;html=1;rounded=0;fontSize=12;startSize=8;endSize=8;curved=1;entryX=1;entryY=1;entryDx=0;entryDy=0;exitX=0;exitY=1;exitDx=0;exitDy=0;" edge="1" parent="1" source="8pr7RFlPT-eMuXhzLhur-11" target="8pr7RFlPT-eMuXhzLhur-3">
          <mxGeometry width="50" height="50" relative="1" as="geometry">
            <mxPoint x="180" y="290" as="sourcePoint" />
            <mxPoint x="230" y="240" as="targetPoint" />
            <Array as="points">
              <mxPoint x="180" y="270" />
            </Array>
          </mxGeometry>
        </mxCell>
        <mxCell id="8pr7RFlPT-eMuXhzLhur-13" value="" style="endArrow=classic;html=1;rounded=0;fontSize=12;startSize=8;endSize=8;curved=1;exitX=0.5;exitY=0;exitDx=0;exitDy=0;entryX=0;entryY=0.5;entryDx=0;entryDy=0;" edge="1" parent="1" source="8pr7RFlPT-eMuXhzLhur-3" target="8pr7RFlPT-eMuXhzLhur-2">
          <mxGeometry width="50" height="50" relative="1" as="geometry">
            <mxPoint x="60" y="120" as="sourcePoint" />
            <mxPoint x="230" y="110" as="targetPoint" />
            <Array as="points">
              <mxPoint x="50" y="70" />
            </Array>
          </mxGeometry>
        </mxCell>
        <mxCell id="8pr7RFlPT-eMuXhzLhur-15" value="" style="endArrow=classic;html=1;rounded=0;fontSize=12;startSize=8;endSize=8;curved=1;exitX=1;exitY=0.5;exitDx=0;exitDy=0;entryX=0.5;entryY=0;entryDx=0;entryDy=0;" edge="1" parent="1" source="8pr7RFlPT-eMuXhzLhur-2" target="8pr7RFlPT-eMuXhzLhur-11">
          <mxGeometry width="50" height="50" relative="1" as="geometry">
            <mxPoint x="180" y="160" as="sourcePoint" />
            <mxPoint x="230" y="110" as="targetPoint" />
            <Array as="points">
              <mxPoint x="310" y="70" />
            </Array>
          </mxGeometry>
        </mxCell>
        <mxCell id="8pr7RFlPT-eMuXhzLhur-18" value="产出游戏资源&lt;br&gt;获得奖励" style="text;html=1;strokeColor=none;fillColor=none;align=center;verticalAlign=middle;whiteSpace=wrap;rounded=0;fontSize=16;" vertex="1" parent="1">
          <mxGeometry x="310" y="80" width="100" height="30" as="geometry" />
        </mxCell>
        <mxCell id="8pr7RFlPT-eMuXhzLhur-19" value="抽取新角色&lt;br&gt;提高角色练度" style="text;html=1;strokeColor=none;fillColor=none;align=center;verticalAlign=middle;whiteSpace=wrap;rounded=0;fontSize=16;" vertex="1" parent="1">
          <mxGeometry x="120" y="260" width="120" height="40" as="geometry" />
        </mxCell>
      </root>
    </mxGraphModel>
  </diagram>
</mxfile>
